<svg width="1920" height="1080" viewBox="0 0 1920 1080" fill="none" xmlns="http://www.w3.org/2000/svg">
<rect width="1920" height="1080" fill="white"/>
<rect x="770" y="350" width="380" height="380" rx="190" fill="#ECF0F3"/>
<rect x="881.094" y="329.797" width="20.7814" height="10.3907" rx="5.19535" transform="rotate(60 881.094 329.797)" fill="#C4C4C4"/>
<rect x="827.102" y="360.97" width="20.7814" height="10.3907" rx="5.19535" transform="rotate(60 827.102 360.97)" fill="#C4C4C4"/>
<path d="M856.882 264.588L895.306 331.14C896.81 333.745 895.918 337.076 893.312 338.58L819.599 381.139C816.994 382.643 813.663 381.75 812.159 379.145L773.735 312.593L856.882 264.588Z" fill="url(#paint0_linear_118_193)"/>
<rect x="853.372" y="240.219" width="22.8595" height="114.298" rx="10.8936" transform="rotate(60 853.372 240.219)" fill="url(#paint1_linear_118_193)"/>
<circle cx="891.749" cy="421.287" r="35" transform="rotate(-30 891.749 421.287)" fill="white"/>
<ellipse cx="891.749" cy="421.288" rx="23.3333" ry="23.3333" transform="rotate(-30 891.749 421.288)" fill="#ECF0F3"/>
<rect x="738.938" y="502.985" width="20.7814" height="10.3907" rx="5.19535" fill="#C4C4C4"/>
<rect x="738.938" y="565.33" width="20.7814" height="10.3907" rx="5.19535" fill="#C4C4C4"/>
<path d="M670.359 491.347H747.207C750.215 491.347 752.654 493.786 752.654 496.794V581.91C752.654 584.919 750.215 587.357 747.207 587.357H670.359V491.347Z" fill="url(#paint2_linear_118_193)"/>
<rect x="647.5" y="482.204" width="22.8595" height="114.298" rx="10.8936" fill="url(#paint3_linear_118_193)"/>
<circle cx="823.499" cy="539.501" r="35" transform="rotate(-90 823.499 539.501)" fill="white"/>
<ellipse cx="823.498" cy="539.502" rx="23.3333" ry="23.3333" transform="rotate(-90 823.498 539.502)" fill="#ECF0F3"/>
<rect x="777.864" y="669.995" width="20.7814" height="10.3907" rx="5.19535" transform="rotate(-45 777.864 669.995)" fill="#C4C4C4"/>
<rect x="821.948" y="714.079" width="20.7814" height="10.3907" rx="5.19535" transform="rotate(-45 821.948 714.079)" fill="#C4C4C4"/>
<path d="M721.143 710.258L775.482 655.919C777.61 653.792 781.058 653.792 783.185 655.919L843.372 716.105C845.499 718.232 845.499 721.681 843.372 723.808L789.032 778.148L721.143 710.258Z" fill="url(#paint4_linear_118_193)"/>
<rect x="698.513" y="719.957" width="22.8595" height="114.298" rx="10.8936" transform="rotate(-45 698.513 719.957)" fill="url(#paint5_linear_118_193)"/>
<circle cx="863.479" cy="636.023" r="35" transform="rotate(-135 863.479 636.023)" fill="white"/>
<ellipse cx="863.479" cy="636.023" rx="23.3333" ry="23.3333" transform="rotate(-135 863.479 636.023)" fill="#ECF0F3"/>
<rect x="923.483" y="760.563" width="20.7814" height="10.3907" rx="5.19535" transform="rotate(-90 923.483 760.563)" fill="#C4C4C4"/>
<rect x="985.828" y="760.563" width="20.7814" height="10.3907" rx="5.19535" transform="rotate(-90 985.828 760.563)" fill="#C4C4C4"/>
<path d="M911.846 829.142V752.295C911.846 749.286 914.284 746.848 917.293 746.848H1002.41C1005.42 746.848 1007.86 749.286 1007.86 752.295V829.142H911.846Z" fill="url(#paint6_linear_118_193)"/>
<rect x="902.702" y="852.001" width="22.8595" height="114.298" rx="10.8936" transform="rotate(-90 902.702 852.001)" fill="url(#paint7_linear_118_193)"/>
<circle cx="960" cy="676.003" r="35" transform="rotate(-180 960 676.003)" fill="white"/>
<ellipse cx="960.001" cy="676.003" rx="23.3333" ry="23.3333" transform="rotate(-180 960.001 676.003)" fill="#ECF0F3"/>
<rect x="1090.49" y="721.637" width="20.7814" height="10.3907" rx="5.19535" transform="rotate(-135 1090.49 721.637)" fill="#C4C4C4"/>
<rect x="1134.58" y="677.553" width="20.7814" height="10.3907" rx="5.19535" transform="rotate(-135 1134.58 677.553)" fill="#C4C4C4"/>
<path d="M1130.76 778.358L1076.42 724.018C1074.29 721.891 1074.29 718.443 1076.42 716.316L1136.6 656.129C1138.73 654.002 1142.18 654.002 1144.31 656.129L1198.65 710.469L1130.76 778.358Z" fill="url(#paint8_linear_118_193)"/>
<rect x="1140.46" y="800.988" width="22.8595" height="114.298" rx="10.8936" transform="rotate(-135 1140.46 800.988)" fill="url(#paint9_linear_118_193)"/>
<circle cx="1056.52" cy="636.022" r="35" transform="rotate(135 1056.52 636.022)" fill="white"/>
<ellipse cx="1056.52" cy="636.022" rx="23.3333" ry="23.3333" transform="rotate(135 1056.52 636.022)" fill="#ECF0F3"/>
<rect x="1181.06" y="576.018" width="20.7814" height="10.3907" rx="5.19535" transform="rotate(-180 1181.06 576.018)" fill="#C4C4C4"/>
<rect x="1181.06" y="513.673" width="20.7814" height="10.3907" rx="5.19535" transform="rotate(-180 1181.06 513.673)" fill="#C4C4C4"/>
<path d="M1249.64 587.656H1172.79C1169.78 587.656 1167.35 585.217 1167.35 582.209V497.092C1167.35 494.084 1169.78 491.646 1172.79 491.646H1249.64V587.656Z" fill="url(#paint10_linear_118_193)"/>
<rect x="1272.5" y="596.799" width="22.8595" height="114.298" rx="10.8936" transform="rotate(-180 1272.5 596.799)" fill="url(#paint11_linear_118_193)"/>
<circle cx="1096.5" cy="539.501" r="35" transform="rotate(90 1096.5 539.501)" fill="white"/>
<ellipse cx="1096.5" cy="539.501" rx="23.3333" ry="23.3333" transform="rotate(90 1096.5 539.501)" fill="#ECF0F3"/>
<rect x="1102.16" y="366.314" width="20.7814" height="10.3907" rx="5.19535" transform="rotate(120 1102.16 366.314)" fill="#C4C4C4"/>
<rect x="1048.16" y="335.142" width="20.7814" height="10.3907" rx="5.19535" transform="rotate(120 1048.16 335.142)" fill="#C4C4C4"/>
<path d="M1146.52 312.743L1108.1 379.295C1106.6 381.9 1103.26 382.792 1100.66 381.288L1026.95 338.73C1024.34 337.226 1023.45 333.895 1024.95 331.29L1063.38 264.738L1146.52 312.743Z" fill="url(#paint12_linear_118_193)"/>
<rect x="1165.87" y="297.518" width="22.8595" height="114.298" rx="10.8936" transform="rotate(120 1165.87 297.518)" fill="url(#paint13_linear_118_193)"/>
<circle cx="1028.25" cy="421.288" r="35" transform="rotate(30 1028.25 421.288)" fill="white"/>
<ellipse cx="1028.25" cy="421.288" rx="23.3333" ry="23.3333" transform="rotate(30 1028.25 421.288)" fill="#ECF0F3"/>
<defs>
<linearGradient id="paint0_linear_118_193" x1="840.359" y1="353.315" x2="808.356" y2="297.884" gradientUnits="userSpaceOnUse">
<stop stop-color="#C9CFDA"/>
<stop offset="1" stop-color="#D4DAE5" stop-opacity="0.47"/>
</linearGradient>
<linearGradient id="paint1_linear_118_193" x1="876.231" y1="301.94" x2="855.658" y2="301.94" gradientUnits="userSpaceOnUse">
<stop stop-color="#B9C2D1"/>
<stop offset="1" stop-color="#BDC7DA" stop-opacity="0"/>
</linearGradient>
<linearGradient id="paint2_linear_118_193" x1="738.938" y1="550.02" x2="674.931" y2="550.02" gradientUnits="userSpaceOnUse">
<stop stop-color="#C9CFDA"/>
<stop offset="1" stop-color="#D4DAE5" stop-opacity="0.47"/>
</linearGradient>
<linearGradient id="paint3_linear_118_193" x1="670.36" y1="543.924" x2="649.786" y2="543.924" gradientUnits="userSpaceOnUse">
<stop stop-color="#B9C2D1"/>
<stop offset="1" stop-color="#BDC7DA" stop-opacity="0"/>
</linearGradient>
<linearGradient id="paint4_linear_118_193" x1="811.123" y1="703.254" x2="765.864" y2="748.513" gradientUnits="userSpaceOnUse">
<stop stop-color="#C9CFDA"/>
<stop offset="1" stop-color="#D4DAE5" stop-opacity="0.47"/>
</linearGradient>
<linearGradient id="paint5_linear_118_193" x1="721.373" y1="781.677" x2="700.799" y2="781.677" gradientUnits="userSpaceOnUse">
<stop stop-color="#B9C2D1"/>
<stop offset="1" stop-color="#BDC7DA" stop-opacity="0"/>
</linearGradient>
<linearGradient id="paint6_linear_118_193" x1="970.519" y1="760.563" x2="970.519" y2="824.57" gradientUnits="userSpaceOnUse">
<stop stop-color="#C9CFDA"/>
<stop offset="1" stop-color="#D4DAE5" stop-opacity="0.47"/>
</linearGradient>
<linearGradient id="paint7_linear_118_193" x1="925.562" y1="913.722" x2="904.988" y2="913.722" gradientUnits="userSpaceOnUse">
<stop stop-color="#B9C2D1"/>
<stop offset="1" stop-color="#BDC7DA" stop-opacity="0"/>
</linearGradient>
<linearGradient id="paint8_linear_118_193" x1="1123.75" y1="688.378" x2="1169.01" y2="733.637" gradientUnits="userSpaceOnUse">
<stop stop-color="#C9CFDA"/>
<stop offset="1" stop-color="#D4DAE5" stop-opacity="0.47"/>
</linearGradient>
<linearGradient id="paint9_linear_118_193" x1="1163.31" y1="862.709" x2="1142.74" y2="862.709" gradientUnits="userSpaceOnUse">
<stop stop-color="#B9C2D1"/>
<stop offset="1" stop-color="#BDC7DA" stop-opacity="0"/>
</linearGradient>
<linearGradient id="paint10_linear_118_193" x1="1181.06" y1="528.983" x2="1245.07" y2="528.983" gradientUnits="userSpaceOnUse">
<stop stop-color="#C9CFDA"/>
<stop offset="1" stop-color="#D4DAE5" stop-opacity="0.47"/>
</linearGradient>
<linearGradient id="paint11_linear_118_193" x1="1295.36" y1="658.52" x2="1274.79" y2="658.52" gradientUnits="userSpaceOnUse">
<stop stop-color="#B9C2D1"/>
<stop offset="1" stop-color="#BDC7DA" stop-opacity="0"/>
</linearGradient>
<linearGradient id="paint12_linear_118_193" x1="1061.42" y1="342.797" x2="1093.42" y2="287.366" gradientUnits="userSpaceOnUse">
<stop stop-color="#C9CFDA"/>
<stop offset="1" stop-color="#D4DAE5" stop-opacity="0.47"/>
</linearGradient>
<linearGradient id="paint13_linear_118_193" x1="1188.73" y1="359.238" x2="1168.16" y2="359.238" gradientUnits="userSpaceOnUse">
<stop stop-color="#B9C2D1"/>
<stop offset="1" stop-color="#BDC7DA" stop-opacity="0"/>
</linearGradient>
</defs>
</svg>
